<?xml version="1.0" encoding="UTF-8" standalone="no"?>
<!DOCTYPE svg PUBLIC "-//W3C//DTD SVG 1.1//EN"
 "http://www.w3.org/Graphics/SVG/1.1/DTD/svg11.dtd">
<!-- Generated by graphviz version 15.1.0 (20260618.0150)
 -->
<!-- Title: snakemake_dag Pages: 1 -->
<svg width="872pt" height="548pt"
 viewBox="0.00 0.00 872.00 548.00" xmlns="http://www.w3.org/2000/svg" xmlns:xlink="http://www.w3.org/1999/xlink">
<g id="graph0" class="graph" transform="scale(1 1) rotate(0) translate(4 544)">
<title>snakemake_dag</title>
<polygon fill="white" stroke="none" points="-4,4 -4,-544 868,-544 868,4 -4,4"/>
<!-- 0 -->
<g id="node1" class="node">
<title>0</title>
<path fill="none" stroke="#d85656" stroke-width="2" d="M350,-36C350,-36 320,-36 320,-36 314,-36 308,-30 308,-24 308,-24 308,-12 308,-12 308,-6 314,0 320,0 320,0 350,0 350,0 356,0 362,-6 362,-12 362,-12 362,-24 362,-24 362,-30 356,-36 350,-36"/>
<text xml:space="preserve" text-anchor="middle" x="335" y="-14.12" font-family="sans" font-size="10.00">all</text>
</g>
<!-- 1 -->
<g id="node2" class="node">
<title>1</title>
<path fill="none" stroke="#567bd8" stroke-width="2" d="M255.62,-180C255.62,-180 192.38,-180 192.38,-180 186.38,-180 180.38,-174 180.38,-168 180.38,-168 180.38,-156 180.38,-156 180.38,-150 186.38,-144 192.38,-144 192.38,-144 255.62,-144 255.62,-144 261.62,-144 267.62,-150 267.62,-156 267.62,-156 267.62,-168 267.62,-168 267.62,-174 261.62,-180 255.62,-180"/>
<text xml:space="preserve" text-anchor="middle" x="224" y="-158.12" font-family="sans" font-size="10.00">snapshot_config</text>
</g>
<!-- 1&#45;&gt;0 -->
<g id="edge1" class="edge">
<title>1&#45;&gt;0</title>
<path fill="none" stroke="grey" stroke-width="2" d="M238.06,-143.02C256.99,-118.8 290.87,-75.45 313.14,-46.96"/>
<polygon fill="grey" stroke="grey" stroke-width="2" points="315.79,-49.26 319.19,-39.22 310.28,-44.95 315.79,-49.26"/>
</g>
<!-- 12 -->
<g id="node13" class="node">
<title>12</title>
<path fill="none" stroke="#56d8c9" stroke-width="2" d="M415.12,-108C415.12,-108 366.88,-108 366.88,-108 360.88,-108 354.88,-102 354.88,-96 354.88,-96 354.88,-84 354.88,-84 354.88,-78 360.88,-72 366.88,-72 366.88,-72 415.12,-72 415.12,-72 421.12,-72 427.12,-78 427.12,-84 427.12,-84 427.12,-96 427.12,-96 427.12,-102 421.12,-108 415.12,-108"/>
<text xml:space="preserve" text-anchor="middle" x="391" y="-86.12" font-family="sans" font-size="10.00">run_manifest</text>
</g>
<!-- 1&#45;&gt;12 -->
<g id="edge26" class="edge">
<title>1&#45;&gt;12</title>
<path fill="none" stroke="grey" stroke-width="2" d="M266.57,-143.15C289.64,-133.49 318.24,-121.5 342.2,-111.46"/>
<polygon fill="grey" stroke="grey" stroke-width="2" points="343.24,-114.82 351.11,-107.72 340.53,-108.36 343.24,-114.82"/>
</g>
<!-- 2 -->
<g id="node3" class="node">
<title>2</title>
<path fill="none" stroke="#56c9d8" stroke-width="2" d="M852,-108C852,-108 822,-108 822,-108 816,-108 810,-102 810,-96 810,-96 810,-84 810,-84 810,-78 816,-72 822,-72 822,-72 852,-72 852,-72 858,-72 864,-78 864,-84 864,-84 864,-96 864,-96 864,-102 858,-108 852,-108"/>
<text xml:space="preserve" text-anchor="middle" x="837" y="-86.12" font-family="sans" font-size="10.00">runbook</text>
</g>
<!-- 2&#45;&gt;0 -->
<g id="edge2" class="edge">
<title>2&#45;&gt;0</title>
<path fill="none" stroke="grey" stroke-width="2" d="M809.12,-76.24C804.8,-74.61 800.33,-73.12 796,-72 644.33,-32.66 457.02,-22.51 375.78,-19.9"/>
<polygon fill="grey" stroke="grey" stroke-width="2" points="375.89,-16.4 365.79,-19.6 375.69,-23.39 375.89,-16.4"/>
</g>
<!-- 3 -->
<g id="node4" class="node">
<title>3</title>
<path fill="none" stroke="#56d8a2" stroke-width="2" d="M355.12,-540C355.12,-540 294.88,-540 294.88,-540 288.88,-540 282.88,-534 282.88,-528 282.88,-528 282.88,-516 282.88,-516 282.88,-510 288.88,-504 294.88,-504 294.88,-504 355.12,-504 355.12,-504 361.12,-504 367.12,-510 367.12,-516 367.12,-516 367.12,-528 367.12,-528 367.12,-534 361.12,-540 355.12,-540"/>
<text xml:space="preserve" text-anchor="middle" x="325" y="-518.12" font-family="sans" font-size="10.00">resolve_models</text>
</g>
<!-- 3&#45;&gt;0 -->
<g id="edge3" class="edge">
<title>3&#45;&gt;0</title>
<path fill="none" stroke="grey" stroke-width="2" d="M282.18,-521.2C193.93,-519.14 0,-500.76 0,-379 0,-379 0,-379 0,-161 0,-117.07 8.03,-98.59 43,-72 81.91,-42.41 223.59,-27.56 294.29,-21.86"/>
<polygon fill="grey" stroke="grey" stroke-width="2" points="294.32,-25.37 304.02,-21.11 293.77,-18.39 294.32,-25.37"/>
</g>
<!-- 4 -->
<g id="node5" class="node">
<title>4</title>
<path fill="none" stroke="#d87d56" stroke-width="2" d="M171.75,-468C171.75,-468 130.25,-468 130.25,-468 124.25,-468 118.25,-462 118.25,-456 118.25,-456 118.25,-444 118.25,-444 118.25,-438 124.25,-432 130.25,-432 130.25,-432 171.75,-432 171.75,-432 177.75,-432 183.75,-438 183.75,-444 183.75,-444 183.75,-456 183.75,-456 183.75,-462 177.75,-468 171.75,-468"/>
<text xml:space="preserve" text-anchor="middle" x="151" y="-446.12" font-family="sans" font-size="10.00">build_query</text>
</g>
<!-- 3&#45;&gt;4 -->
<g id="edge13" class="edge">
<title>3&#45;&gt;4</title>
<path fill="none" stroke="grey" stroke-width="2" d="M281.99,-503.7C256.01,-493.25 222.94,-479.94 196.52,-469.31"/>
<polygon fill="grey" stroke="grey" stroke-width="2" points="197.92,-466.1 187.33,-465.62 195.3,-472.6 197.92,-466.1"/>
</g>
<!-- 5 -->
<g id="node6" class="node">
<title>5</title>
<path fill="none" stroke="#56a2d8" stroke-width="2" d="M283,-396C283,-396 253,-396 253,-396 247,-396 241,-390 241,-384 241,-384 241,-372 241,-372 241,-366 247,-360 253,-360 253,-360 283,-360 283,-360 289,-360 295,-366 295,-372 295,-372 295,-384 295,-384 295,-390 289,-396 283,-396"/>
<text xml:space="preserve" text-anchor="middle" x="268" y="-374.12" font-family="sans" font-size="10.00">score</text>
</g>
<!-- 3&#45;&gt;5 -->
<g id="edge14" class="edge">
<title>3&#45;&gt;5</title>
<path fill="none" stroke="grey" stroke-width="2" d="M317.78,-503.02C308.27,-479.33 291.42,-437.35 279.99,-408.86"/>
<polygon fill="grey" stroke="grey" stroke-width="2" points="283.26,-407.62 276.29,-399.65 276.77,-410.23 283.26,-407.62"/>
</g>
<!-- 6 -->
<g id="node7" class="node">
<title>6</title>
<path fill="none" stroke="#d8c356" stroke-width="2" d="M518.25,-324C518.25,-324 449.75,-324 449.75,-324 443.75,-324 437.75,-318 437.75,-312 437.75,-312 437.75,-300 437.75,-300 437.75,-294 443.75,-288 449.75,-288 449.75,-288 518.25,-288 518.25,-288 524.25,-288 530.25,-294 530.25,-300 530.25,-300 530.25,-312 530.25,-312 530.25,-318 524.25,-324 518.25,-324"/>
<text xml:space="preserve" text-anchor="middle" x="484" y="-302.12" font-family="sans" font-size="10.00">compute_weights</text>
</g>
<!-- 3&#45;&gt;6 -->
<g id="edge17" class="edge">
<title>3&#45;&gt;6</title>
<path fill="none" stroke="grey" stroke-width="2" d="M368.09,-506.07C387.4,-497.51 409.12,-485.03 424,-468 457,-430.22 472.54,-372.6 479.31,-337.5"/>
<polygon fill="grey" stroke="grey" stroke-width="2" points="482.73,-338.26 481.04,-327.8 475.84,-337.03 482.73,-338.26"/>
</g>
<!-- 7 -->
<g id="node8" class="node">
<title>7</title>
<path fill="none" stroke="#56d87b" stroke-width="2" d="M369.5,-252C369.5,-252 308.5,-252 308.5,-252 302.5,-252 296.5,-246 296.5,-240 296.5,-240 296.5,-228 296.5,-228 296.5,-222 302.5,-216 308.5,-216 308.5,-216 369.5,-216 369.5,-216 375.5,-216 381.5,-222 381.5,-228 381.5,-228 381.5,-240 381.5,-240 381.5,-246 375.5,-252 369.5,-252"/>
<text xml:space="preserve" text-anchor="middle" x="339" y="-230.12" font-family="sans" font-size="10.00">render_combine</text>
</g>
<!-- 3&#45;&gt;7 -->
<g id="edge19" class="edge">
<title>3&#45;&gt;7</title>
<path fill="none" stroke="grey" stroke-width="2" d="M325.88,-503.11C328.2,-455.56 334.56,-325.6 337.49,-265.83"/>
<polygon fill="grey" stroke="grey" stroke-width="2" points="340.98,-266.07 337.98,-255.91 333.99,-265.72 340.98,-266.07"/>
</g>
<!-- 8 -->
<g id="node9" class="node">
<title>8</title>
<path fill="none" stroke="#59d856" stroke-width="2" d="M190.25,-324C190.25,-324 109.75,-324 109.75,-324 103.75,-324 97.75,-318 97.75,-312 97.75,-312 97.75,-300 97.75,-300 97.75,-294 103.75,-288 109.75,-288 109.75,-288 190.25,-288 190.25,-288 196.25,-288 202.25,-294 202.25,-300 202.25,-300 202.25,-312 202.25,-312 202.25,-318 196.25,-324 190.25,-324"/>
<text xml:space="preserve" text-anchor="middle" x="150" y="-302.12" font-family="sans" font-size="10.00">potts_align_baseline</text>
</g>
<!-- 3&#45;&gt;8 -->
<g id="edge20" class="edge">
<title>3&#45;&gt;8</title>
<path fill="none" stroke="grey" stroke-width="2" d="M310.38,-503.12C279.88,-465.83 209.29,-379.51 172.79,-334.86"/>
<polygon fill="grey" stroke="grey" stroke-width="2" points="175.66,-332.85 166.62,-327.32 170.24,-337.28 175.66,-332.85"/>
</g>
<!-- 9 -->
<g id="node10" class="node">
<title>9</title>
<path fill="none" stroke="#c6d856" stroke-width="2" d="M584,-252C584,-252 532,-252 532,-252 526,-252 520,-246 520,-240 520,-240 520,-228 520,-228 520,-222 526,-216 532,-216 532,-216 584,-216 584,-216 590,-216 596,-222 596,-228 596,-228 596,-240 596,-240 596,-246 590,-252 584,-252"/>
<text xml:space="preserve" text-anchor="middle" x="558" y="-230.12" font-family="sans" font-size="10.00">design_config</text>
</g>
<!-- 3&#45;&gt;9 -->
<g id="edge23" class="edge">
<title>3&#45;&gt;9</title>
<path fill="none" stroke="grey" stroke-width="2" d="M367.95,-510C393.89,-501.72 426.39,-488.26 450,-468 507.1,-419.01 510.96,-393.82 539,-324 546.52,-305.28 551.26,-283.1 554.13,-265.56"/>
<polygon fill="grey" stroke="grey" stroke-width="2" points="557.56,-266.32 555.56,-255.91 550.63,-265.29 557.56,-266.32"/>
</g>
<!-- 3&#45;&gt;12 -->
<g id="edge27" class="edge">
<title>3&#45;&gt;12</title>
<path fill="none" stroke="grey" stroke-width="2" d="M344.29,-503.31C369.37,-478.27 410,-429.86 410,-379 410,-379 410,-379 410,-233 410,-194.31 402.99,-150.21 397.48,-121.56"/>
<polygon fill="grey" stroke="grey" stroke-width="2" points="400.92,-120.92 395.53,-111.8 394.06,-122.29 400.92,-120.92"/>
</g>
<!-- 4&#45;&gt;0 -->
<g id="edge4" class="edge">
<title>4&#45;&gt;0</title>
<path fill="none" stroke="grey" stroke-width="2" d="M123.07,-431.09C89.6,-407.19 38,-361.51 38,-307 38,-307 38,-307 38,-161 38,-117.45 44.91,-99.1 79,-72 111.92,-45.83 231.33,-29.78 294.76,-22.91"/>
<polygon fill="grey" stroke="grey" stroke-width="2" points="294.8,-26.42 304.38,-21.89 294.07,-19.46 294.8,-26.42"/>
</g>
<!-- 4&#45;&gt;5 -->
<g id="edge15" class="edge">
<title>4&#45;&gt;5</title>
<path fill="none" stroke="grey" stroke-width="2" d="M180.83,-431.15C195.54,-422.35 213.46,-411.63 229.22,-402.2"/>
<polygon fill="grey" stroke="grey" stroke-width="2" points="230.85,-405.3 237.64,-397.16 227.26,-399.3 230.85,-405.3"/>
</g>
<!-- 4&#45;&gt;8 -->
<g id="edge21" class="edge">
<title>4&#45;&gt;8</title>
<path fill="none" stroke="grey" stroke-width="2" d="M150.87,-431.02C150.71,-407.54 150.42,-366.11 150.22,-337.64"/>
<polygon fill="grey" stroke="grey" stroke-width="2" points="153.72,-337.84 150.15,-327.87 146.72,-337.89 153.72,-337.84"/>
</g>
<!-- 5&#45;&gt;0 -->
<g id="edge5" class="edge">
<title>5&#45;&gt;0</title>
<path fill="none" stroke="grey" stroke-width="2" d="M256.41,-359.22C230.04,-318.34 167.04,-218.26 157,-180 152.94,-164.52 154.64,-159.82 157,-144 161.94,-110.91 155.71,-96.02 179,-72 209.54,-40.5 259.5,-27.72 294.63,-22.53"/>
<polygon fill="grey" stroke="grey" stroke-width="2" points="294.83,-26.04 304.3,-21.29 293.93,-19.1 294.83,-26.04"/>
</g>
<!-- 5&#45;&gt;6 -->
<g id="edge16" class="edge">
<title>5&#45;&gt;6</title>
<path fill="none" stroke="grey" stroke-width="2" d="M295.8,-367.99C328.19,-357.5 382.62,-339.85 424.64,-326.24"/>
<polygon fill="grey" stroke="grey" stroke-width="2" points="425.66,-329.59 434.09,-323.17 423.5,-322.93 425.66,-329.59"/>
</g>
<!-- 5&#45;&gt;7 -->
<g id="edge18" class="edge">
<title>5&#45;&gt;7</title>
<path fill="none" stroke="grey" stroke-width="2" d="M276.99,-359.02C288.89,-335.22 310.01,-292.97 324.26,-264.48"/>
<polygon fill="grey" stroke="grey" stroke-width="2" points="327.39,-266.06 328.73,-255.55 321.12,-262.92 327.39,-266.06"/>
</g>
<!-- 5&#45;&gt;8 -->
<g id="edge22" class="edge">
<title>5&#45;&gt;8</title>
<path fill="none" stroke="grey" stroke-width="2" d="M240.04,-360.41C225.42,-351.74 207.24,-340.96 191.06,-331.36"/>
<polygon fill="grey" stroke="grey" stroke-width="2" points="193.23,-328.58 182.85,-326.49 189.66,-334.6 193.23,-328.58"/>
</g>
<!-- 5&#45;&gt;12 -->
<g id="edge28" class="edge">
<title>5&#45;&gt;12</title>
<path fill="none" stroke="grey" stroke-width="2" d="M266.89,-359.25C265.66,-328.66 266.12,-264.62 287,-216 289.45,-210.3 337.5,-153.57 367.42,-118.52"/>
<polygon fill="grey" stroke="grey" stroke-width="2" points="369.89,-121.02 373.73,-111.15 364.57,-116.48 369.89,-121.02"/>
</g>
<!-- 6&#45;&gt;0 -->
<g id="edge6" class="edge">
<title>6&#45;&gt;0</title>
<path fill="none" stroke="grey" stroke-width="2" d="M485.38,-287.03C487.64,-244.74 487.56,-137.59 436,-72 420.62,-52.44 396.01,-39.32 374.94,-31.02"/>
<polygon fill="grey" stroke="grey" stroke-width="2" points="376.15,-27.73 365.55,-27.61 373.75,-34.31 376.15,-27.73"/>
</g>
<!-- 6&#45;&gt;9 -->
<g id="edge24" class="edge">
<title>6&#45;&gt;9</title>
<path fill="none" stroke="grey" stroke-width="2" d="M502.67,-287.34C510.85,-279.6 520.62,-270.36 529.66,-261.81"/>
<polygon fill="grey" stroke="grey" stroke-width="2" points="532.02,-264.4 536.88,-254.98 527.21,-259.31 532.02,-264.4"/>
</g>
<!-- 6&#45;&gt;12 -->
<g id="edge29" class="edge">
<title>6&#45;&gt;12</title>
<path fill="none" stroke="grey" stroke-width="2" d="M478.64,-287.13C469.28,-256.89 448.6,-194.06 424,-144 419.95,-135.76 414.97,-127.18 410.12,-119.38"/>
<polygon fill="grey" stroke="grey" stroke-width="2" points="413.21,-117.71 404.86,-111.19 407.32,-121.49 413.21,-117.71"/>
</g>
<!-- 7&#45;&gt;0 -->
<g id="edge7" class="edge">
<title>7&#45;&gt;0</title>
<path fill="none" stroke="grey" stroke-width="2" d="M295.66,-225.3C251,-216.39 185.87,-200.29 171,-180 126.99,-119.97 234.22,-61.93 295.63,-34.86"/>
<polygon fill="grey" stroke="grey" stroke-width="2" points="296.66,-38.23 304.47,-31.06 293.9,-31.8 296.66,-38.23"/>
</g>
<!-- 7&#45;&gt;12 -->
<g id="edge30" class="edge">
<title>7&#45;&gt;12</title>
<path fill="none" stroke="grey" stroke-width="2" d="M345.59,-215.02C354.26,-191.33 369.63,-149.35 380.06,-120.86"/>
<polygon fill="grey" stroke="grey" stroke-width="2" points="383.27,-122.27 383.43,-111.68 376.7,-119.87 383.27,-122.27"/>
</g>
<!-- 8&#45;&gt;0 -->
<g id="edge8" class="edge">
<title>8&#45;&gt;0</title>
<path fill="none" stroke="grey" stroke-width="2" d="M137.51,-287.3C109.42,-245.14 47.68,-137.43 100,-72 123.92,-42.09 233.89,-27.85 294.55,-22.17"/>
<polygon fill="grey" stroke="grey" stroke-width="2" points="294.74,-25.66 304.39,-21.29 294.12,-18.69 294.74,-25.66"/>
</g>
<!-- 8&#45;&gt;12 -->
<g id="edge31" class="edge">
<title>8&#45;&gt;12</title>
<path fill="none" stroke="grey" stroke-width="2" d="M167.24,-287.37C197.26,-256.97 261.54,-193.22 320,-144 331.06,-134.69 343.56,-125.08 354.97,-116.63"/>
<polygon fill="grey" stroke="grey" stroke-width="2" points="357.03,-119.46 363.03,-110.73 352.89,-113.81 357.03,-119.46"/>
</g>
<!-- 9&#45;&gt;0 -->
<g id="edge9" class="edge">
<title>9&#45;&gt;0</title>
<path fill="none" stroke="grey" stroke-width="2" d="M596.98,-230.76C667.35,-225.16 804.62,-206.13 763,-144 719.13,-78.51 474.16,-38.1 375.84,-24.32"/>
<polygon fill="grey" stroke="grey" stroke-width="2" points="376.36,-20.86 365.98,-22.97 375.41,-27.8 376.36,-20.86"/>
</g>
<!-- 10 -->
<g id="node11" class="node">
<title>10</title>
<path fill="none" stroke="#9fd856" stroke-width="2" d="M622,-180C622,-180 564,-180 564,-180 558,-180 552,-174 552,-168 552,-168 552,-156 552,-156 552,-150 558,-144 564,-144 564,-144 622,-144 622,-144 628,-144 634,-150 634,-156 634,-156 634,-168 634,-168 634,-174 628,-180 622,-180"/>
<text xml:space="preserve" text-anchor="middle" x="593" y="-158.12" font-family="sans" font-size="10.00">design_handoff</text>
</g>
<!-- 9&#45;&gt;10 -->
<g id="edge25" class="edge">
<title>9&#45;&gt;10</title>
<path fill="none" stroke="grey" stroke-width="2" d="M566.83,-215.34C570.33,-208.34 574.44,-200.12 578.36,-192.28"/>
<polygon fill="grey" stroke="grey" stroke-width="2" points="581.35,-194.12 582.7,-183.61 575.09,-190.99 581.35,-194.12"/>
</g>
<!-- 9&#45;&gt;12 -->
<g id="edge32" class="edge">
<title>9&#45;&gt;12</title>
<path fill="none" stroke="grey" stroke-width="2" d="M539.77,-215C520.84,-196.58 490.12,-167.42 462,-144 450.69,-134.58 437.91,-124.8 426.35,-116.24"/>
<polygon fill="grey" stroke="grey" stroke-width="2" points="428.72,-113.64 418.58,-110.55 424.58,-119.29 428.72,-113.64"/>
</g>
<!-- 10&#45;&gt;0 -->
<g id="edge10" class="edge">
<title>10&#45;&gt;0</title>
<path fill="none" stroke="grey" stroke-width="2" d="M578.72,-143.13C561.87,-123.15 532.07,-91.1 500,-72 460.8,-48.66 410.15,-34.37 375.37,-26.61"/>
<polygon fill="grey" stroke="grey" stroke-width="2" points="376.34,-23.23 365.83,-24.57 374.88,-30.08 376.34,-23.23"/>
</g>
<!-- 10&#45;&gt;12 -->
<g id="edge33" class="edge">
<title>10&#45;&gt;12</title>
<path fill="none" stroke="grey" stroke-width="2" d="M551.15,-146.5C518.83,-135.3 474.04,-119.78 440.04,-107.99"/>
<polygon fill="grey" stroke="grey" stroke-width="2" points="441.5,-104.8 430.91,-104.83 439.21,-111.41 441.5,-104.8"/>
</g>
<!-- 11 -->
<g id="node12" class="node">
<title>11</title>
<path fill="none" stroke="#d8a456" stroke-width="2" d="M741.75,-180C741.75,-180 664.25,-180 664.25,-180 658.25,-180 652.25,-174 652.25,-168 652.25,-168 652.25,-156 652.25,-156 652.25,-150 658.25,-144 664.25,-144 664.25,-144 741.75,-144 741.75,-144 747.75,-144 753.75,-150 753.75,-156 753.75,-156 753.75,-168 753.75,-168 753.75,-174 747.75,-180 741.75,-180"/>
<text xml:space="preserve" text-anchor="middle" x="703" y="-158.12" font-family="sans" font-size="10.00">characterize_render</text>
</g>
<!-- 11&#45;&gt;0 -->
<g id="edge11" class="edge">
<title>11&#45;&gt;0</title>
<path fill="none" stroke="grey" stroke-width="2" d="M674.42,-143.12C641.92,-123.42 586.77,-91.91 536,-72 482.15,-50.88 416.95,-35.43 375.71,-26.83"/>
<polygon fill="grey" stroke="grey" stroke-width="2" points="376.42,-23.4 365.92,-24.84 375.02,-30.26 376.42,-23.4"/>
</g>
<!-- 11&#45;&gt;12 -->
<g id="edge34" class="edge">
<title>11&#45;&gt;12</title>
<path fill="none" stroke="grey" stroke-width="2" d="M651.35,-146.12C648.53,-145.39 645.73,-144.67 643,-144 573.12,-126.77 491.47,-110.25 440.49,-100.36"/>
<polygon fill="grey" stroke="grey" stroke-width="2" points="441.36,-96.97 430.88,-98.51 440.03,-103.84 441.36,-96.97"/>
</g>
<!-- 12&#45;&gt;0 -->
<g id="edge12" class="edge">
<title>12&#45;&gt;0</title>
<path fill="none" stroke="grey" stroke-width="2" d="M376.87,-71.34C370.95,-63.93 363.91,-55.14 357.32,-46.9"/>
<polygon fill="grey" stroke="grey" stroke-width="2" points="360.19,-44.89 351.21,-39.27 354.73,-49.26 360.19,-44.89"/>
</g>
</g>
</svg>
